<svg width="47" height="47" viewBox="0 0 47 47" fill="none" xmlns="http://www.w3.org/2000/svg">
<path d="M36.3758 7.8225V40.3134C36.3758 40.7607 36.1981 41.1897 35.8818 41.506C35.5655 41.8223 35.1365 42 34.6892 42H5.12516C4.67786 42 4.24887 41.8223 3.93258 41.506C3.61629 41.1897 3.4386 40.7607 3.4386 40.3134V1.68656C3.4386 1.23926 3.61629 0.810275 3.93258 0.493983C4.24887 0.177691 4.67786 0 5.12516 0L28.5467 0L36.3758 7.8225Z" fill="#EFF3F5"/>
<path d="M36.3758 7.8225V7.82906H30.2333C29.786 7.82906 29.357 7.65137 29.0407 7.33508C28.7244 7.01879 28.5468 6.5898 28.5468 6.1425V0L36.3758 7.8225Z" fill="#E5E5E5"/>
<path d="M8.57043 34.0724H31.2439V35.8378H8.57043V34.0724ZM8.57043 28.4878H31.2439V30.2531H8.57043V28.4878ZM8.57043 22.9096H31.2439V24.675H8.57043V22.9096ZM8.57043 17.325H31.2439V19.0903H8.57043V17.325ZM8.57043 11.7468H31.2439V13.5121H8.57043V11.7468Z" fill="#D4D4D6"/>
<path d="M8.57043 6.16211H23.9857V7.92742H8.57043V6.16211Z" fill="#687D87"/>
<path d="M35.2536 26.7422C29.9249 24.8916 27.0505 27.9825 26.9521 32.5631C26.8667 36.5203 30.1677 42.9319 34.3217 41.8819C34.9352 41.7244 35.5786 41.7244 36.1921 41.8819C40.3461 42.9319 43.6471 36.5138 43.5617 32.5631C43.4567 27.9759 40.5824 24.8916 35.2536 26.7422Z" fill="#D3333F"/>
<path d="M35.2536 26.7422C29.9249 24.8916 27.0505 27.9825 26.9521 32.5631C26.8667 36.5203 30.1677 42.9319 34.3217 41.8819C34.9352 41.7244 35.5786 41.7244 36.1921 41.8819C40.3461 42.9319 43.6471 36.5138 43.5617 32.5631C43.4567 27.9759 40.5824 24.8916 35.2536 26.7422Z" fill="#BA2537"/>
<path d="M33.7508 27.2738C34.6367 27.6281 35.6145 27.5691 36.5005 27.2278C39.3026 26.1516 42.7611 28.0809 42.7611 31.6969C42.7611 36.2316 38.2198 41.6719 33.0026 40.7334C28.573 39.8278 26.9783 35.0241 27.3917 31.1391C27.7001 29.3081 28.2711 28.1597 29.367 27.3131C30.6729 26.4469 32.4054 26.7291 33.7508 27.2738Z" fill="#D3333F"/>
<path d="M32.2742 31.5525C31.0733 32.9241 29.3145 33.3572 28.3433 32.5106C27.3786 31.6641 27.5689 29.866 28.7698 28.4878C29.9708 27.1163 31.7295 26.6831 32.7008 27.5297C33.6655 28.3763 33.4752 30.1744 32.2742 31.5525Z" fill="#E95C60"/>
<path d="M35.7458 25.784C35.5292 21.7284 33.1536 22.004 30.8895 21.3412C31.6705 23.4412 31.9133 26.4468 35.7458 25.784Z" fill="#5AC8AE"/>
<path d="M35.7458 25.7841C33.4292 26.191 32.4252 25.246 31.8214 23.9729C32.4383 25.1148 33.462 25.9088 35.6211 25.5348C35.5686 24.6095 35.4111 23.9073 35.1617 23.3691C35.4767 23.9401 35.6867 24.7079 35.7458 25.7841Z" fill="#54AF97"/>
<path d="M32.7205 22.8177C33.882 23.3559 34.9255 24.3862 35.6211 25.6921C34.8926 24.8849 33.882 23.6315 32.7205 22.8177Z" fill="#54AF97"/>
<path d="M31.2701 29.6625C30.5876 30.1285 29.7673 30.1219 29.4392 29.6428C29.1111 29.1638 29.3933 28.396 30.0758 27.9235C30.7583 27.4575 31.5786 27.4641 31.9067 27.9431C32.2348 28.4222 31.9461 29.1966 31.2701 29.6625Z" fill="#F27079"/>
<path d="M35.0961 27.313C35.2142 26.4009 35.4111 25.4821 35.7786 24.6093C36.1395 23.7365 36.6776 22.9162 37.3929 22.2468C37.4309 22.2115 37.4754 22.1839 37.5239 22.1658C37.5725 22.1477 37.6241 22.1393 37.6759 22.1411C37.7277 22.1429 37.7787 22.155 37.8258 22.1765C37.873 22.198 37.9154 22.2286 37.9508 22.2665C37.9861 22.3044 38.0136 22.3489 38.0317 22.3975C38.0499 22.446 38.0583 22.4977 38.0564 22.5495C38.0546 22.6013 38.0426 22.6522 38.0211 22.6994C37.9996 22.7465 37.969 22.789 37.9311 22.8243L37.9048 22.8505C37.2289 23.3755 36.6711 24.058 36.2576 24.839C35.8442 25.6199 35.562 26.4796 35.3651 27.359C35.352 27.4312 35.2798 27.4771 35.2011 27.464C35.1684 27.4555 35.1399 27.4357 35.1206 27.408C35.1013 27.3803 35.0926 27.3466 35.0961 27.313Z" fill="#5AC8AE"/>
<path d="M33.3701 26.7618C34.2232 27.8775 36.3954 27.825 37.0451 26.7618C35.7917 27.4706 34.5382 27.3787 33.3701 26.7618Z" fill="#8C1B39"/>
</svg>
