<svg width="47" height="47" viewBox="0 0 47 47" fill="none" xmlns="http://www.w3.org/2000/svg">
<path d="M19.0938 46.2656L17.625 41.8594H12.3977C11.4469 41.8594 10.5349 41.4816 9.86259 40.8093C9.19023 40.1369 8.8125 39.225 8.8125 38.2742C8.81253 37.7342 8.68681 37.2017 8.44531 36.7188C8.20382 36.2358 8.0781 35.7033 8.07813 35.1633V31.5781C8.07816 31.1445 7.94826 30.7209 7.70518 30.3618C7.46209 30.0027 7.11699 29.7248 6.71439 29.5637L5.88528 29.2325C5.44865 29.0577 5.07441 28.756 4.81079 28.3665C4.54718 27.9769 4.40628 27.5174 4.40625 27.047C4.40573 26.6474 4.50681 26.2542 4.7 25.9043L7.10875 21.5715C7.74451 20.4293 8.07817 19.1437 8.07813 17.8365C8.07802 17.2082 8.00108 16.5823 7.849 15.9727L7.48181 14.509C7.39009 14.1398 7.34372 13.7608 7.34375 13.3803C7.34389 12.7884 7.45679 12.202 7.67642 11.6523C8.87891 8.64617 10.9546 6.06929 13.6356 4.25412C16.3167 2.43895 19.4802 1.46877 22.7179 1.46875H25.7031C27.9212 1.46875 30.1176 1.90564 32.1669 2.75447C34.2162 3.60331 36.0782 4.84746 37.6466 6.4159C39.215 7.98434 40.4592 9.84635 41.308 11.8956C42.1569 13.9449 42.5938 16.1413 42.5938 18.3594C42.5938 21.7113 41.6016 24.9882 39.7422 27.777C37.771 30.7344 36.719 34.2089 36.7188 37.763C36.7189 39.0212 36.8566 40.2756 37.1293 41.5039L38.1875 46.2656H19.0938Z" fill="#D08C76"/>
<path d="M23.5 2.20312H20.5148C19.1612 2.20568 17.8134 2.37839 16.5029 2.71719C14.5106 3.54346 12.7036 4.7595 11.1878 6.2939C9.6721 7.8283 8.47826 9.65011 7.67643 11.6523C7.31334 12.5606 7.24551 13.5601 7.48256 14.509L7.84975 15.9727C8.00157 16.5823 8.07827 17.2082 8.07814 17.8365C8.07835 19.1425 7.74547 20.427 7.11097 21.5686L4.70222 25.9014C4.54007 26.1935 4.44196 26.5168 4.4144 26.8498C4.38684 27.1828 4.43046 27.5178 4.54236 27.8326C4.65427 28.1474 4.8319 28.4348 5.06344 28.6757C5.29499 28.9165 5.57514 29.1054 5.88529 29.2296L6.7144 29.5608C7.11747 29.722 7.46289 30.0004 7.70601 30.3601C7.94913 30.7197 8.07876 31.144 8.07814 31.5781V35.1633C8.07811 35.7033 8.20383 36.2358 8.44533 36.7188C8.68682 37.2017 8.81254 37.7342 8.81251 38.2742C8.81251 39.225 9.19024 40.1369 9.8626 40.8093C10.535 41.4816 11.4469 41.8594 12.3977 41.8594H17.625L19.0938 46.2656H35.8213L34.9261 42.2383C34.6534 41.01 34.5158 39.7556 34.5156 38.4974C34.5156 34.9428 35.5676 31.4677 37.5391 28.5099C39.3982 25.7215 40.3904 22.4451 40.3906 19.0938C40.3906 14.6141 38.6111 10.3179 35.4435 7.15027C32.2759 3.98267 27.9797 2.20313 23.5 2.20312Z" fill="#F2B89E"/>
<path d="M38.9219 15.4218C38.9216 14.4752 38.6585 13.5473 38.1618 12.7414C38.1753 12.6563 38.1838 12.5704 38.1875 12.4843C38.1867 12.0685 38.0678 11.6614 37.8447 11.3104C37.6216 10.9594 37.3035 10.6789 36.9274 10.5015C36.3839 9.13697 35.4438 7.96673 34.2284 7.14198C33.013 6.31724 31.5782 5.87589 30.1094 5.87497C29.8663 5.87497 29.6255 5.88819 29.3883 5.91169C29.0713 5.47406 28.661 5.11244 28.187 4.85306C27.713 4.59367 27.1872 4.44301 26.6477 4.41201C26.1083 4.381 25.5687 4.47043 25.0681 4.6738C24.5675 4.87717 24.1184 5.18939 23.7534 5.58783C23.3166 5.34794 22.835 5.20079 22.3387 5.15559C21.8424 5.11039 21.3421 5.16812 20.8692 5.32515C20.3962 5.48218 19.9608 5.73513 19.5901 6.06819C19.2194 6.40125 18.9214 6.80723 18.7149 7.26073C18.285 6.91238 17.765 6.69324 17.2154 6.62882C16.6659 6.56439 16.1093 6.65733 15.6105 6.89681C15.1117 7.13629 14.6911 7.51248 14.3977 7.98161C14.1043 8.45074 13.9502 8.99353 13.9532 9.54684C13.9532 9.62028 13.9693 9.68343 13.9737 9.75247C13.303 10.3482 12.7605 11.0744 12.3794 11.8866C11.7738 12.0638 11.242 12.4325 10.8636 12.9375C10.4853 13.4425 10.2808 14.0565 10.2808 14.6875C10.2808 15.3185 10.4853 15.9325 10.8636 16.4374C11.242 16.9424 11.7738 17.3111 12.3794 17.4884C13.031 18.8956 14.1595 20.0269 15.5651 20.682C16.9707 21.3371 18.5628 21.4738 20.0595 21.0677C20.3152 21.1586 20.5802 21.2204 20.8497 21.252C21.0487 21.7183 21.3421 22.1384 21.7114 22.4857C22.0807 22.833 22.5179 23.1001 22.9955 23.2701C23.1515 23.7232 23.3962 24.1406 23.7153 24.498C24.0345 24.8554 24.4217 25.1456 24.8543 25.3517C25.2869 25.5577 25.7563 25.6754 26.2349 25.6979C26.7135 25.7204 27.1919 25.6473 27.6419 25.4828C29.278 29.0349 30.3579 32.8176 30.8438 36.6982V36.7187L33.0469 35.9843C33.0451 32.7129 32.8703 29.4438 32.5233 26.1907C33.8842 25.7951 35.054 24.9163 35.8129 23.7194C36.5719 22.5225 36.8679 21.0897 36.6454 19.69C37.3462 19.2203 37.9205 18.5851 38.3176 17.8407C38.7146 17.0963 38.9222 16.2655 38.9219 15.4218Z" fill="#004A9E"/>
<path d="M36.7188 13.2188C36.7179 12.8029 36.599 12.3958 36.376 12.0448C36.1529 11.6938 35.8348 11.4133 35.4586 11.2359C34.9151 9.87138 33.975 8.70114 32.7596 7.87639C31.5442 7.05165 30.1095 6.6103 28.6407 6.60938C28.3976 6.60937 28.1567 6.62259 27.9195 6.64609C27.581 6.18048 27.1373 5.80142 26.6245 5.53981C26.1118 5.27819 25.5444 5.14141 24.9688 5.14062C24.6782 5.1444 24.3892 5.18361 24.1081 5.25739C23.9829 5.35984 23.8644 5.47022 23.7534 5.58786C23.3166 5.34797 22.835 5.20083 22.3387 5.15563C21.8424 5.11043 21.3421 5.16815 20.8692 5.32518C20.3962 5.48221 19.9608 5.73517 19.5901 6.06822C19.2194 6.40128 18.9214 6.80726 18.7149 7.26077C18.285 6.91241 17.765 6.69328 17.2154 6.62885C16.6659 6.56443 16.1093 6.65736 15.6105 6.89684C15.1117 7.13632 14.6911 7.51251 14.3977 7.98164C14.1043 8.45077 13.9502 8.99356 13.9532 9.54688C13.9532 9.62031 13.9693 9.68347 13.9737 9.7525C13.303 10.3483 12.7605 11.0744 12.3794 11.8866C11.7738 12.0638 11.242 12.4326 10.8636 12.9375C10.4853 13.4425 10.2808 14.0565 10.2808 14.6875C10.2808 15.3185 10.4853 15.9325 10.8636 16.4375C11.242 16.9424 11.7738 17.3112 12.3794 17.4884C13.031 18.8957 14.1595 20.027 15.5651 20.6821C16.9707 21.3372 18.5628 21.4738 20.0595 21.0677C20.3152 21.1586 20.5802 21.2204 20.8497 21.2521C21.0487 21.7184 21.3421 22.1384 21.7114 22.4857C22.0807 22.833 22.5179 23.1001 22.9955 23.2701C23.1515 23.7232 23.3962 24.1407 23.7153 24.4981C24.0345 24.8555 24.4217 25.1457 24.8543 25.3517C25.2869 25.5577 25.7563 25.6754 26.2349 25.6979C26.7135 25.7204 27.1919 25.6473 27.6419 25.4828C29.278 29.035 30.3579 32.8177 30.8438 36.6982V36.7188L31.5782 36.4749C31.5694 33.2858 31.3958 30.0993 31.0582 26.9281C31.5791 26.7681 32.0749 26.536 32.5314 26.2385L32.527 26.1937C32.6041 26.1709 32.6739 26.1327 32.7473 26.107C33.6474 25.4858 34.3532 24.6224 34.7831 23.6168C35.213 22.6111 35.3494 21.5044 35.1766 20.4244C36.2784 19.6867 37.0516 18.5509 37.3341 17.2553C37.6165 15.9598 37.3863 14.6052 36.6916 13.4758C36.7055 13.3907 36.7146 13.3049 36.7188 13.2188Z" fill="#0068DD"/>
<path d="M15.4219 13.9531H13.9531C13.9543 14.9266 14.3415 15.8599 15.0299 16.5482C15.7182 17.2366 16.6515 17.6238 17.625 17.625V16.1562C17.0407 16.1562 16.4803 15.9241 16.0672 15.511C15.654 15.0978 15.4219 14.5374 15.4219 13.9531ZM20.8842 9.61297C21.0178 9.57111 21.1568 9.54884 21.2969 9.54688V8.07812C20.5178 8.07813 19.7706 8.38761 19.2197 8.9385C18.6689 9.48939 18.3594 10.2366 18.3594 11.0156H19.8281C19.8286 10.9106 19.8404 10.806 19.8634 10.7035C20.2999 10.9625 20.6616 11.3305 20.9129 11.7715C21.1643 12.2124 21.2966 12.7112 21.2969 13.2188H22.7656C22.7657 12.5106 22.5946 11.813 22.2671 11.1851C21.9395 10.5573 21.465 10.018 20.8842 9.61297ZM31.5781 22.0312C31.5781 22.4208 31.4234 22.7944 31.1479 23.0698C30.8725 23.3453 30.4989 23.5 30.1094 23.5V24.9688C30.8884 24.9688 31.6356 24.6593 32.1865 24.1084C32.7374 23.5575 33.0469 22.8103 33.0469 22.0312H31.5781Z" fill="#004A9E"/>
<path d="M28.6406 19.0938C28.6057 19.0939 28.5709 19.0914 28.5363 19.0865C28.3838 19.0646 28.242 18.9953 28.1311 18.8884C28.0201 18.7816 27.9456 18.6425 27.918 18.4909L27.0125 13.5126L26.4089 15.6246C26.3649 15.7778 26.2722 15.9126 26.1449 16.0085C26.0176 16.1044 25.8625 16.1563 25.7031 16.1563H20.5625V14.6876H25.1494L26.4661 10.0801C26.5097 9.91954 26.6072 9.77889 26.7423 9.68179C26.8774 9.58469 27.0418 9.53707 27.2079 9.54693C27.3735 9.55503 27.5315 9.61896 27.6562 9.7283C27.7809 9.83764 27.8648 9.98596 27.8945 10.1491L28.9689 16.0594L30.1865 13.6242C30.2514 13.4941 30.3534 13.3861 30.4796 13.314C30.6059 13.242 30.7507 13.209 30.8958 13.2193C31.0408 13.2296 31.1795 13.2827 31.2943 13.3719C31.4091 13.4611 31.4949 13.5824 31.5407 13.7204L32.3749 16.2246L33.099 14.4144C33.1536 14.2781 33.2478 14.1614 33.3694 14.0791C33.491 13.9969 33.6345 13.9531 33.7812 13.9532H36.7188V15.4219H34.2784L32.9947 18.6319C32.939 18.7718 32.8416 18.8912 32.7157 18.9738C32.5898 19.0565 32.4416 19.0985 32.291 19.0941C32.1405 19.0897 31.9949 19.0391 31.8741 18.9492C31.7533 18.8593 31.663 18.7344 31.6156 18.5915L30.7079 15.867L29.3016 18.6877C29.2403 18.8103 29.1459 18.9134 29.0291 18.9851C28.9123 19.0569 28.7777 19.0946 28.6406 19.0938Z" fill="#F9CB52"/>
<path d="M4.06034 25.5474C3.84687 25.9306 3.71758 26.3549 3.6811 26.792C3.64462 27.2291 3.70178 27.6689 3.84878 28.0822C3.99577 28.4955 4.22922 28.8726 4.53354 29.1885C4.83786 29.5044 5.20605 29.7517 5.61355 29.914L6.44119 30.2459C6.70818 30.3514 6.93714 30.535 7.09815 30.7727C7.25917 31.0103 7.34476 31.291 7.34374 31.5781V35.1633C7.34438 35.8171 7.49645 36.4618 7.78803 37.047C7.97851 37.428 8.07781 37.8481 8.07811 38.2741C8.07947 39.4193 8.53501 40.5172 9.34479 41.327C10.1546 42.1368 11.2525 42.5924 12.3977 42.5937H17.0977L18.399 46.4977L19.7943 46.0335L18.3256 41.6273C18.2767 41.4804 18.1826 41.3527 18.0567 41.2625C17.9309 41.1723 17.7798 41.1242 17.625 41.125H12.3977C11.6419 41.1242 10.9172 40.8236 10.3827 40.2891C9.84824 39.7546 9.54764 39.03 9.54686 38.2741C9.54622 37.6203 9.39414 36.9756 9.10256 36.3905C8.91209 36.0094 8.81278 35.5893 8.81249 35.1633V31.5781C8.81407 30.9973 8.64078 30.4294 8.31517 29.9485C7.98955 29.4675 7.52669 29.0957 6.98683 28.8815L6.15845 28.5503C5.94469 28.4654 5.75151 28.3358 5.59184 28.1703C5.43217 28.0047 5.30969 27.807 5.23259 27.5903C5.15549 27.3736 5.12555 27.1429 5.14477 26.9137C5.16399 26.6845 5.23192 26.4621 5.34403 26.2612L7.75278 21.9284C8.44756 20.6765 8.81224 19.2683 8.81249 17.8365C8.81243 17.1482 8.72809 16.4626 8.56133 15.7949L8.19414 14.3313C8.11709 14.0202 8.07813 13.7008 8.07811 13.3803C8.07752 12.8816 8.17275 12.3875 8.35864 11.9248C9.49815 9.04898 11.4777 6.58328 14.0392 4.84915C16.6007 3.11501 19.6253 2.19292 22.7186 2.20309H25.7031C28.6311 2.20681 31.5032 3.00515 34.0131 4.51296C36.523 6.02077 38.5766 8.18152 39.9549 10.7648C41.3332 13.3481 41.9846 16.257 41.8395 19.1814C41.6944 22.1058 40.7584 24.9359 39.1312 27.3701C37.0762 30.4464 35.981 34.0635 35.9844 37.763C35.9846 39.0748 36.1281 40.3827 36.4125 41.6633L37.4707 46.425L38.9042 46.1062L37.846 41.3453C37.5851 40.169 37.4533 38.9678 37.4531 37.763C37.4502 34.3535 38.4595 31.0198 40.3532 28.1845C42.1278 25.5292 43.1484 22.442 43.3063 19.2521C43.4641 16.0622 42.7533 12.8893 41.2496 10.0717C39.7458 7.2541 37.5055 4.89744 34.7676 3.25303C32.0297 1.60862 28.8969 0.738114 25.7031 0.734344H22.7186C19.3311 0.723238 16.0189 1.73332 13.214 3.63284C10.4091 5.53235 8.24187 8.2331 6.99491 11.3828C6.57462 12.4334 6.496 13.5897 6.77019 14.6875L7.13738 16.1511C7.27561 16.7035 7.34541 17.2707 7.3452 17.8401C7.34481 19.0221 7.04383 20.1846 6.47056 21.2183L4.06034 25.5474Z" fill="black"/>
<path d="M15.4219 13.9531H13.9531C13.9543 14.9266 14.3415 15.8599 15.0299 16.5482C15.7182 17.2366 16.6515 17.6238 17.625 17.625V16.1562C17.0407 16.1562 16.4803 15.9241 16.0672 15.511C15.654 15.0978 15.4219 14.5374 15.4219 13.9531ZM22.7656 13.2188C22.7657 12.5106 22.5946 11.813 22.2671 11.1851C21.9395 10.5573 21.465 10.018 20.8842 9.61297C21.0178 9.57111 21.1568 9.54884 21.2969 9.54688V8.07812C20.5178 8.07813 19.7706 8.38761 19.2197 8.9385C18.6689 9.48939 18.3594 10.2366 18.3594 11.0156H19.8281C19.8286 10.9106 19.8404 10.806 19.8634 10.7035C20.2999 10.9625 20.6616 11.3305 20.9129 11.7715C21.1643 12.2124 21.2966 12.7112 21.2969 13.2188H22.7656ZM30.1094 23.5V24.9688C30.8884 24.9688 31.6356 24.6593 32.1865 24.1084C32.7374 23.5575 33.0469 22.8103 33.0469 22.0312H31.5781C31.5781 22.4208 31.4234 22.7944 31.1479 23.0698C30.8725 23.3453 30.4989 23.5 30.1094 23.5Z" fill="black"/>
<path d="M37.4531 20.5625C37.4531 20.3906 37.445 20.2144 37.4274 20.0279C38.5197 19.1661 39.2699 17.9439 39.5437 16.5797C39.8175 15.2156 39.597 13.7986 38.9218 12.582C38.9218 12.5497 38.9218 12.5174 38.9218 12.4844C38.9192 11.9806 38.7877 11.4859 38.5397 11.0474C38.2917 10.6089 37.9356 10.2413 37.5052 9.97941C36.8803 8.53827 35.8467 7.31187 34.5323 6.45188C33.2178 5.59188 31.6801 5.13601 30.1093 5.14062C29.9779 5.14062 29.8472 5.14062 29.7164 5.1509C28.9588 4.29212 27.8945 3.76488 26.7522 3.68248C25.61 3.60009 24.481 3.96913 23.6079 4.71027C22.7021 4.36587 21.7082 4.32882 20.7793 4.60484C19.8504 4.88086 19.038 5.45463 18.4673 6.23777C17.9762 5.99829 17.4369 5.8742 16.8906 5.87499C15.9335 5.87616 15.0146 6.25037 14.329 6.91815C13.6434 7.58594 13.2451 8.49468 13.2187 9.4514C12.6693 9.9892 12.2086 10.6106 11.8535 11.2925C11.173 11.562 10.5891 12.0299 10.1777 12.6353C9.76635 13.2408 9.54639 13.9559 9.54639 14.6879C9.54639 15.4198 9.76635 16.1349 10.1777 16.7404C10.5891 17.3458 11.173 17.8137 11.8535 18.0832C12.6068 19.5281 13.8197 20.681 15.301 21.3598C16.7823 22.0387 18.4475 22.2049 20.0337 21.8322C20.1373 21.8623 20.2437 21.8895 20.3524 21.9123C20.8165 22.7631 21.5469 23.4382 22.4314 23.8341C22.828 24.7355 23.5184 25.4757 24.3899 25.9341C25.2613 26.3926 26.2625 26.542 27.2298 26.3582C28.6946 29.6833 29.6666 33.2042 30.1152 36.8098C30.1374 36.9874 30.2237 37.1507 30.3578 37.2692C30.492 37.3877 30.6647 37.4531 30.8437 37.4531C30.9226 37.4532 31.001 37.4403 31.0758 37.4149L33.2789 36.6806C33.4251 36.6319 33.5522 36.5384 33.6424 36.4135C33.7325 36.2886 33.7811 36.1384 33.7812 35.9844C33.7812 32.9228 33.6241 29.7987 33.3134 26.6916C34.5324 26.1941 35.5763 25.3462 36.3132 24.2552C37.0501 23.1641 37.4468 21.879 37.4531 20.5625ZM32.3125 25.4872C32.1481 25.5362 32.006 25.6411 31.9109 25.7838C31.8158 25.9265 31.7737 26.098 31.7918 26.2686C32.1178 29.3368 32.2919 32.4241 32.3103 35.4556L31.451 35.742C30.9115 32.0888 29.8531 28.5313 28.3079 25.1773C28.2315 25.0112 28.096 24.8796 27.9277 24.8082C27.7594 24.7367 27.5706 24.7306 27.398 24.791C27.0903 24.9046 26.7654 24.9647 26.4375 24.9687C25.8344 24.9659 25.2469 24.7776 24.7546 24.4293C24.2623 24.081 23.8891 23.5896 23.6858 23.0219C23.6491 22.9207 23.5906 22.8287 23.5145 22.7525C23.4384 22.6764 23.3464 22.6179 23.2451 22.5813C22.8629 22.4447 22.5131 22.2307 22.2174 21.9527C21.9217 21.6747 21.6866 21.3387 21.5267 20.9657C21.4761 20.8471 21.3951 20.744 21.292 20.6666C21.1888 20.5893 21.0672 20.5405 20.9392 20.525C20.7239 20.4995 20.5121 20.4503 20.3076 20.3782C20.1674 20.328 20.0153 20.3216 19.8714 20.3598C18.5407 20.7211 17.125 20.5999 15.875 20.0177C14.625 19.4354 13.6214 18.4297 13.0417 17.1785C12.9979 17.0849 12.9349 17.0015 12.8567 16.934C12.7785 16.8664 12.6869 16.8161 12.5879 16.7863C12.1337 16.6544 11.7345 16.3786 11.4505 16.0004C11.1665 15.6222 11.013 15.162 11.013 14.689C11.013 14.216 11.1665 13.7558 11.4505 13.3775C11.7345 12.9993 12.1337 12.7235 12.5879 12.5916C12.6869 12.5618 12.7785 12.5115 12.8567 12.444C12.9349 12.3764 12.9979 12.2931 13.0417 12.1994C13.3804 11.477 13.8629 10.8313 14.4598 10.3018C14.5439 10.227 14.6098 10.1339 14.6522 10.0296C14.6946 9.92528 14.7124 9.81264 14.7044 9.70035C14.7044 9.65555 14.6955 9.61296 14.6853 9.54834C14.6853 8.96403 14.9174 8.40366 15.3305 7.99049C15.7437 7.57733 16.3041 7.34521 16.8884 7.34521C17.3864 7.34777 17.8685 7.52091 18.2543 7.83577C18.341 7.905 18.4423 7.95369 18.5505 7.97818C18.6587 8.00267 18.771 8.00232 18.8791 7.97716C18.9872 7.952 19.0881 7.90269 19.1744 7.83292C19.2606 7.76315 19.33 7.67474 19.3772 7.57434C19.5461 7.21518 19.7863 6.89413 20.0831 6.63067C20.38 6.36722 20.7273 6.16687 21.104 6.04179C21.4806 5.91671 21.8788 5.86952 22.2743 5.90309C22.6698 5.93665 23.0543 6.05027 23.4045 6.23704C23.5475 6.31378 23.7119 6.34099 23.872 6.31441C24.0321 6.28784 24.1789 6.20898 24.2894 6.09016C24.5809 5.77105 24.9399 5.52093 25.3402 5.35802C25.7405 5.19511 26.1721 5.1235 26.6036 5.1484C27.0351 5.1733 27.4556 5.29409 27.8345 5.50197C28.2134 5.70986 28.5412 5.9996 28.7941 6.35013C28.8695 6.45197 28.97 6.53254 29.0859 6.58402C29.2017 6.63549 29.3289 6.65612 29.455 6.64388C29.6746 6.62112 29.889 6.60937 30.1093 6.60937C31.4322 6.60588 32.7253 7.00138 33.8199 7.74421C34.9145 8.48704 35.7597 9.54268 36.245 10.7733C36.314 10.9448 36.4451 11.0841 36.6122 11.1632C36.8636 11.2805 37.0763 11.4672 37.2252 11.7012C37.3742 11.9353 37.4532 12.207 37.4531 12.4844C37.4519 12.5142 37.4485 12.5439 37.4428 12.5732C37.4428 12.5776 37.4333 12.6511 37.4325 12.6547C37.413 12.8185 37.4493 12.9841 37.5353 13.1247C38.1311 14.0926 38.3287 15.2536 38.0866 16.364C37.8445 17.4744 37.1815 18.4478 36.237 19.0798C36.1218 19.1573 36.0309 19.2658 35.9749 19.3927C35.9189 19.5197 35.9 19.66 35.9204 19.7973C36.1167 21.0226 35.8582 22.2773 35.1936 23.3253C34.5291 24.3733 33.5044 25.1422 32.3125 25.4872Z" fill="black"/>
<path d="M36.7188 13.9532H33.7812C33.6344 13.9531 33.4909 13.9971 33.3693 14.0795C33.2476 14.1618 33.1535 14.2787 33.099 14.4151L32.3749 16.2253L31.5407 13.7211C31.4949 13.5831 31.4091 13.4619 31.2943 13.3727C31.1795 13.2835 31.0408 13.2303 30.8958 13.22C30.7507 13.2097 30.6059 13.2427 30.4796 13.3148C30.3534 13.3869 30.2514 13.4948 30.1865 13.6249L28.9689 16.0601L27.8945 10.1499C27.8648 9.9867 27.7809 9.83838 27.6562 9.72904C27.5315 9.6197 27.3735 9.55578 27.2079 9.54767C27.0419 9.53777 26.8776 9.58529 26.7425 9.68225C26.6074 9.7792 26.5099 9.91968 26.4661 10.0801L25.1494 14.6876H20.5625V16.1563H25.7031C25.8627 16.1562 26.0179 16.1041 26.1453 16.0079C26.2726 15.9117 26.3651 15.7766 26.4089 15.6232L27.0125 13.5111L27.918 18.4909C27.9456 18.6425 28.0201 18.7816 28.1311 18.8884C28.242 18.9953 28.3838 19.0646 28.5363 19.0865C28.5709 19.0914 28.6057 19.0939 28.6406 19.0938C28.7777 19.0946 28.9123 19.0569 29.0291 18.9851C29.1459 18.9134 29.2403 18.8103 29.3016 18.6877L30.7116 15.867L31.6192 18.5915C31.6667 18.7344 31.757 18.8593 31.8778 18.9492C31.9986 19.0391 32.1442 19.0897 32.2947 19.0941C32.4452 19.0985 32.5935 19.0565 32.7194 18.9739C32.8452 18.8912 32.9427 18.7718 32.9984 18.6319L34.2784 15.4219H36.7188V13.9532Z" fill="black"/>
</svg>
