<svg width="47" height="47" viewBox="0 0 47 47" fill="none" xmlns="http://www.w3.org/2000/svg">
<path d="M8.91186 11.3214C9.65686 10.5245 10.4904 9.83337 10.9332 9.58312C13.2086 8.12007 16.46 8.04499 18.5487 10.4186C20.2505 12.3514 20.6239 14.6229 19.2052 16.8059C17.9404 18.7522 16.4446 16.8906 15.7997 17.9995C15.1548 19.1083 17.1261 19.9284 16.9913 21.0988C16.8566 22.2693 15.5918 22.4849 15.7997 23.7747C16.0076 25.0645 17.205 24.3387 17.9789 26.4582C18.4563 27.7672 17.9019 28.8953 16.9798 29.9406C16.4803 30.5065 15.8737 30.968 15.1951 31.2984C14.5164 31.6288 13.7791 31.8217 13.0256 31.8659C12.272 31.9101 11.5172 31.8047 10.8046 31.5559C10.092 31.3071 9.43561 30.9197 8.87336 30.4161C3.97601 25.0953 4.00488 16.5653 8.91186 11.3214Z" fill="#FF5855"/>
<path d="M21.5749 17.9994C20.545 20.3672 18.5487 21.4221 16.9644 20.9986C16.9644 20.9986 21.5749 21.6358 21.5749 23.7746V39.1751" stroke="#373449" stroke-linecap="round" stroke-linejoin="round"/>
<path d="M38.09 11.3214C37.345 10.5245 36.5095 9.83337 36.0667 9.58312C33.7913 8.12007 30.5418 8.04499 28.4512 10.4186C26.7494 12.3514 26.376 14.6229 27.7947 16.8059C29.0595 18.7522 30.5553 16.8906 31.2002 17.9995C31.8451 19.1083 29.8738 19.9284 30.0085 21.0988C30.1433 22.2693 31.4081 22.4849 31.2002 23.7747C30.9923 25.0645 29.7949 24.3387 29.021 26.4582C28.5455 27.7672 29.098 28.8953 30.0201 29.9406C30.5196 30.5065 31.1262 30.968 31.8048 31.2984C32.4835 31.6288 33.2208 31.8217 33.9743 31.8659C34.7279 31.9101 35.4827 31.8047 36.1953 31.5559C36.9079 31.3071 37.5643 30.9197 38.1265 30.4161C43.0239 25.0953 42.995 16.5634 38.088 11.3195L38.09 11.3214Z" fill="#FF5855"/>
<path d="M25.425 17.9994C26.455 20.3672 28.4512 21.4221 30.0356 20.9986C30.0356 20.9986 25.425 21.6358 25.425 23.7746V39.1751" stroke="#373449" stroke-linecap="round" stroke-linejoin="round"/>
<path d="M30.6035 21.6013C31.3697 20.3712 34.1957 18.4384 33.5488 17.3296C32.9059 16.2227 29.7873 16.4517 29.5197 15.4661C29.0442 13.7066 28.9017 12.2243 30.7825 10.4128C31.6103 9.47148 32.6691 8.96519 33.7317 8.7284C33.2177 8.63215 32.6883 8.51087 32.1666 8.54745C31.4524 8.5955 30.7549 8.78518 30.1148 9.10544C29.4746 9.42569 28.9045 9.87012 28.4378 10.4128C26.736 12.3456 26.3568 13.9453 27.7756 16.1283C29.0403 18.0727 30.5592 16.2227 31.2041 17.3315C31.849 18.4384 29.8662 19.9496 30.0009 21.12" fill="#FF866C"/>
<path d="M34.1725 8.61482C33.8273 8.57655 33.4793 8.57011 33.1329 8.59556C33.8125 8.8978 34.4035 9.22698 34.9387 9.73328C35.3275 10.0605 36.0879 10.9788 36.6712 11.899C40.5444 18.0284 39.7475 28.3217 33.1118 30.6953C32.3216 31.1641 31.4303 31.4361 30.5129 31.4884C32.1877 32.295 34.2091 32.268 35.9493 31.2324C41.7514 26.9164 43.2953 18.4885 39.451 12.4245C38.8658 11.5043 38.2132 10.6708 37.8243 10.3416C36.8212 9.39193 35.5425 8.78527 34.1725 8.60904V8.61482Z" fill="#ED4343"/>
<path d="M38.09 11.3214C37.345 10.5245 36.5095 9.83337 36.0667 9.58312C33.7913 8.12007 30.5418 8.04499 28.4512 10.4186C26.7494 12.3514 26.376 14.6229 27.7947 16.8059C29.0595 18.7522 30.5553 16.8906 31.2002 17.9995C31.8451 19.1083 29.8738 19.9284 30.0085 21.0988C30.1433 22.2693 31.4081 22.4849 31.2002 23.7747C30.9923 25.0645 29.7949 24.3387 29.021 26.4582C28.5455 27.7672 29.098 28.8953 30.0201 29.9406C30.5196 30.5065 31.1262 30.968 31.8048 31.2984C32.4835 31.6288 33.2208 31.8217 33.9743 31.8659C34.7279 31.9101 35.4827 31.8047 36.1953 31.5559C36.9079 31.3071 37.5643 30.9197 38.1265 30.4161C43.0239 25.0953 42.995 16.5634 38.088 11.3195L38.09 11.3214Z" stroke="#373449" stroke-linecap="round" stroke-linejoin="round"/>
<path d="M9.09281 30.5624C4.65939 22.5484 8.76555 10.3974 17.155 9.13069C16.8835 9.04984 16.6063 8.93049 16.3272 8.89006C14.9796 8.69755 13.6013 8.98631 12.4135 9.63506C11.9554 9.85259 11.0487 10.4879 10.2498 11.229C4.98088 16.1052 4.37448 24.6505 8.87913 30.3102" fill="#FF866C"/>
<path d="M14.1191 8.00642C13.6783 7.97562 13.2914 8.06225 12.8563 8.12578C14.0036 8.32983 15.1548 8.8573 16.0442 9.86988C17.7459 11.8026 18.0655 14.0665 16.6467 16.2476C16.3445 16.7096 16.0557 16.9657 15.742 17.0889C16.4947 17.0542 17.6227 17.7049 18.5718 16.2476C19.9886 14.0646 19.6113 11.8026 17.9096 9.86988C16.9431 8.77051 15.5798 8.10154 14.1191 8.00642ZM13.8785 17.0908C13.6282 17.11 13.4377 17.1736 13.2779 17.4508C12.633 18.5596 14.6158 19.4086 14.481 20.579C14.3463 21.7494 13.068 21.9362 13.2779 23.226C13.4858 24.5157 14.6697 23.8131 15.4436 25.9326C15.9191 27.2416 15.3396 28.3774 14.4194 29.4227C13.5605 30.3905 12.3909 31.0285 11.1122 31.2265C12.9987 31.5422 14.995 30.957 16.3445 29.4227C17.2647 28.3774 17.7844 27.2416 17.307 25.9326C16.5332 23.8131 15.3492 24.5157 15.1413 23.226C14.9334 21.9362 16.2097 21.7494 16.3445 20.579C16.4793 19.4086 14.4964 18.5596 15.1413 17.4508C15.2142 17.3261 15.3184 17.2226 15.4436 17.1505C14.8718 17.2506 14.3174 17.0696 13.8785 17.0908Z" fill="#ED4343"/>
<path d="M8.91186 11.3214C9.65686 10.5245 10.4904 9.83337 10.9332 9.58312C13.2086 8.12007 16.46 8.04499 18.5487 10.4186C20.2505 12.3514 20.6239 14.6229 19.2052 16.8059C17.9404 18.7522 16.4446 16.8906 15.7997 17.9995C15.1548 19.1083 17.1261 19.9284 16.9913 21.0988C16.8566 22.2693 15.5918 22.4849 15.7997 23.7747C16.0076 25.0645 17.205 24.3387 17.9789 26.4582C18.4563 27.7672 17.9019 28.8953 16.9798 29.9406C16.4803 30.5065 15.8737 30.968 15.1951 31.2984C14.5164 31.6288 13.7791 31.8217 13.0256 31.8659C12.272 31.9101 11.5172 31.8047 10.8046 31.5559C10.092 31.3071 9.43561 30.9197 8.87336 30.4161C3.97601 25.0953 4.00488 16.5653 8.91186 11.3214Z" stroke="#373449" stroke-linecap="round" stroke-linejoin="round"/>
</svg>
