<svg width="47" height="47" viewBox="0 0 47 47" fill="none" xmlns="http://www.w3.org/2000/svg">
<path d="M4.40625 17.7205C4.21148 17.7205 4.02469 17.6431 3.88697 17.5054C3.74925 17.3677 3.67188 17.1809 3.67188 16.9861V8.07812C3.67188 6.90951 4.1361 5.78877 4.96244 4.96244C5.78877 4.1361 6.90951 3.67188 8.07812 3.67188C8.27289 3.67188 8.45968 3.74925 8.59741 3.88697C8.73513 4.02469 8.8125 4.21148 8.8125 4.40625C8.8125 4.60102 8.73513 4.78781 8.59741 4.92553C8.45968 5.06325 8.27289 5.14062 8.07812 5.14062C7.29905 5.14063 6.55189 5.45011 6.001 6.001C5.45011 6.55189 5.14063 7.29905 5.14062 8.07812V16.9861C5.14062 17.1809 5.06325 17.3677 4.92553 17.5054C4.78781 17.6431 4.60102 17.7205 4.40625 17.7205ZM23.5 17.7205C23.3052 17.7205 23.1184 17.6431 22.9807 17.5054C22.843 17.3677 22.7656 17.1809 22.7656 16.9861V8.07812C22.7656 7.29905 22.4561 6.55189 21.9053 6.001C21.3544 5.45011 20.6072 5.14063 19.8281 5.14062C19.6334 5.14062 19.4466 5.06325 19.3088 4.92553C19.1711 4.78781 19.0938 4.60102 19.0938 4.40625C19.0938 4.21148 19.1711 4.02469 19.3088 3.88697C19.4466 3.74925 19.6334 3.67188 19.8281 3.67188C20.9967 3.67188 22.1175 4.1361 22.9438 4.96244C23.7701 5.78877 24.2344 6.90951 24.2344 8.07812V16.9861C24.2344 17.1809 24.157 17.3677 24.0193 17.5054C23.8816 17.6431 23.6948 17.7205 23.5 17.7205ZM26.4375 44.7969C22.9317 44.7969 19.5694 43.4042 17.0904 40.9252C14.6114 38.4462 13.2188 35.084 13.2188 31.5781C13.2188 31.3834 13.2961 31.1966 13.4338 31.0588C13.5716 30.9211 13.7584 30.8438 13.9531 30.8438C14.1479 30.8438 14.3347 30.9211 14.4724 31.0588C14.6101 31.1966 14.6875 31.3834 14.6875 31.5781C14.6875 34.6944 15.9254 37.6831 18.129 39.8866C20.3325 42.0902 23.3212 43.3281 26.4375 43.3281C29.5538 43.3281 32.5425 42.0902 34.746 39.8866C36.9496 37.6831 38.1875 34.6944 38.1875 31.5781V13.9531C38.1875 13.7584 38.2649 13.5716 38.4026 13.4338C38.5403 13.2961 38.7271 13.2188 38.9219 13.2188C39.1166 13.2188 39.3034 13.2961 39.4412 13.4338C39.5789 13.5716 39.6562 13.7584 39.6562 13.9531V31.5781C39.6562 35.084 38.2636 38.4462 35.7846 40.9252C33.3056 43.4042 29.9433 44.7969 26.4375 44.7969Z" fill="#B4CDE1"/>
<path d="M38.9219 5.875C37.9052 5.875 36.9113 6.17649 36.0659 6.74135C35.2205 7.30621 34.5616 8.10907 34.1726 9.04839C33.7835 9.98772 33.6817 11.0213 33.88 12.0185C34.0784 13.0157 34.568 13.9317 35.2869 14.6506C36.0058 15.3695 36.9218 15.8591 37.919 16.0575C38.9162 16.2558 39.9498 16.154 40.8891 15.7649C41.8284 15.3759 42.6313 14.717 43.1961 13.8716C43.761 13.0262 44.0625 12.0323 44.0625 11.0156C44.0625 9.65225 43.5209 8.34471 42.5568 7.38065C41.5928 6.4166 40.2853 5.875 38.9219 5.875ZM38.9219 13.2188C38.4861 13.2188 38.0602 13.0895 37.6979 12.8475C37.3356 12.6054 37.0532 12.2613 36.8865 11.8587C36.7197 11.4562 36.6761 11.0132 36.7611 10.5858C36.8461 10.1585 37.0559 9.76589 37.364 9.45778C37.6721 9.14967 38.0647 8.93984 38.4921 8.85483C38.9194 8.76982 39.3624 8.81345 39.765 8.9802C40.1675 9.14695 40.5116 9.42933 40.7537 9.79163C40.9958 10.1539 41.125 10.5799 41.125 11.0156C41.125 11.5999 40.8929 12.1603 40.4797 12.5735C40.0666 12.9866 39.5062 13.2187 38.9219 13.2188Z" fill="#96A1C3"/>
<path d="M38.9219 7.34375C38.1956 7.34375 37.4857 7.5591 36.8819 7.96257C36.2781 8.36604 35.8074 8.93951 35.5295 9.61046C35.2516 10.2814 35.1789 11.0197 35.3206 11.732C35.4622 12.4442 35.8119 13.0985 36.3255 13.612C36.839 14.1256 37.4933 14.4753 38.2055 14.6169C38.9178 14.7586 39.6561 14.6859 40.327 14.408C40.998 14.1301 41.5715 13.6594 41.9749 13.0556C42.3784 12.4518 42.5938 11.7419 42.5938 11.0156C42.5938 10.0418 42.2069 9.10783 41.5183 8.41922C40.8297 7.73061 39.8957 7.34375 38.9219 7.34375ZM38.9219 12.5872C38.6111 12.5872 38.3072 12.495 38.0488 12.3223C37.7903 12.1496 37.5889 11.9042 37.4699 11.617C37.351 11.3299 37.3199 11.0139 37.3805 10.709C37.4412 10.4042 37.5908 10.1241 37.8106 9.90436C38.0304 9.68458 38.3104 9.5349 38.6153 9.47426C38.9201 9.41362 39.2361 9.44474 39.5233 9.56369C39.8105 9.68264 40.0559 9.88407 40.2286 10.1425C40.4013 10.401 40.4934 10.7048 40.4934 11.0156C40.4944 11.2223 40.4544 11.4271 40.3758 11.6182C40.2972 11.8093 40.1814 11.9829 40.0353 12.1291C39.8892 12.2752 39.7155 12.3909 39.5244 12.4695C39.3333 12.5482 39.1285 12.5882 38.9219 12.5872Z" fill="#CCD3EB"/>
<path d="M41.125 11.0157C41.125 11.6 40.8928 12.1604 40.4797 12.5735C40.0665 12.9867 39.5061 13.2188 38.9218 13.2188C38.6109 13.2226 38.3028 13.1588 38.0188 13.0321C37.7348 12.9053 37.4817 12.7184 37.2768 12.4844C36.9931 12.1673 36.8074 11.7747 36.742 11.3542C36.6766 10.9337 36.7344 10.5033 36.9084 10.1149C37.0823 9.72659 37.3651 9.39693 37.7224 9.16581C38.0797 8.93469 38.4963 8.812 38.9218 8.81256C38.9804 8.80548 39.0396 8.80548 39.0981 8.81256C39.6513 8.85696 40.1674 9.10853 40.5432 9.51698C40.919 9.92544 41.1267 10.4607 41.125 11.0157Z" fill="#CCD3EB"/>
<path d="M39.6562 10.2813C39.6562 10.8656 39.4241 11.426 39.0109 11.8392C38.5978 12.2523 38.0374 12.4844 37.4531 12.4844C37.3945 12.4915 37.3354 12.4915 37.2768 12.4844C36.9931 12.1673 36.8074 11.7747 36.742 11.3542C36.6766 10.9337 36.7344 10.5033 36.9084 10.1149C37.0823 9.72659 37.3651 9.39693 37.7224 9.16581C38.0797 8.93469 38.4963 8.812 38.9218 8.81256C38.9804 8.80548 39.0396 8.80548 39.0981 8.81256C39.4583 9.21691 39.657 9.73977 39.6562 10.2813Z" fill="#F5F7FF"/>
<path d="M24.7557 18.756C24.2557 20.6025 23.142 22.2238 21.5979 23.3532C19.7941 24.6888 17.6573 25.5019 15.4218 25.7032V30.1094C15.4218 30.4989 15.2671 30.8725 14.9916 31.148C14.7162 31.4234 14.3426 31.5782 13.9531 31.5782C13.5635 31.5782 13.1899 31.4234 12.9145 31.148C12.6391 30.8725 12.4843 30.4989 12.4843 30.1094V25.7032C7.8651 25.2111 4.14916 22.4205 3.17978 18.8221C3.12119 18.6045 3.11346 18.3763 3.15719 18.1552C3.20092 17.9341 3.29494 17.7261 3.43197 17.5471C3.569 17.3682 3.74536 17.2232 3.94741 17.1234C4.14945 17.0236 4.37176 16.9716 4.59713 16.9714C4.91556 16.9739 5.22455 17.0799 5.47754 17.2733C5.73053 17.4666 5.91382 17.737 5.99978 18.0436C6.73416 20.7755 9.99478 22.8538 13.9457 22.8538C16.0547 22.903 18.1206 22.2522 19.8207 21.0032C20.8235 20.2834 21.5575 19.2497 21.9063 18.0657C21.9886 17.7537 22.1712 17.4776 22.4261 17.2798C22.6809 17.0821 22.9938 16.9737 23.3163 16.9714C23.5365 16.9707 23.7539 17.0194 23.9527 17.1141C24.1514 17.2087 24.3263 17.3468 24.4645 17.5181C24.6027 17.6894 24.7007 17.8896 24.7511 18.1039C24.8015 18.3181 24.803 18.541 24.7557 18.756Z" fill="#FF9900"/>
<path d="M11.0156 4.40625C11.0156 4.79579 10.8609 5.16937 10.5854 5.44481C10.31 5.72026 9.93641 5.875 9.54688 5.875H8.07812V2.9375H9.54688C9.93641 2.9375 10.31 3.09224 10.5854 3.36769C10.8609 3.64313 11.0156 4.01671 11.0156 4.40625ZM19.8281 2.9375V5.875H18.3594C17.9698 5.875 17.5963 5.72026 17.3208 5.44481C17.0454 5.16937 16.8906 4.79579 16.8906 4.40625C16.8906 4.01671 17.0454 3.64313 17.3208 3.36769C17.5963 3.09224 17.9698 2.9375 18.3594 2.9375H19.8281Z" fill="#CCD3EB"/>
<path d="M44.7969 11.0156C44.7979 9.88477 44.4725 8.77765 43.8598 7.82716C43.2471 6.87668 42.3731 6.12322 41.3427 5.65725C40.3123 5.19127 39.1694 5.03257 38.051 5.20021C36.9326 5.36784 35.8864 5.85468 35.0379 6.60229C34.1895 7.34989 33.5748 8.32649 33.2677 9.41485C32.9606 10.5032 32.9741 11.6571 33.3067 12.7379C33.6392 13.8188 34.2766 14.7807 35.1424 15.5082C36.0082 16.2357 37.0655 16.6979 38.1875 16.8392V31.5781C38.2664 34.6944 37.1041 37.7144 34.9563 39.9737C32.8086 42.2331 29.8512 43.5467 26.7349 43.6255C23.6186 43.7044 20.5987 42.5421 18.3393 40.3944C16.08 38.2466 14.7664 35.2893 14.6875 32.173C14.982 32.0644 15.2499 31.8941 15.4733 31.6736C15.6855 31.4714 15.8551 31.2289 15.9724 30.9603C16.0897 30.6917 16.1522 30.4024 16.1563 30.1094V26.3641C18.2888 26.0642 20.3103 25.2278 22.0313 23.9333C23.7086 22.705 24.916 20.9405 25.4535 18.9322C25.5299 18.6168 25.5333 18.288 25.4633 17.9711C25.3933 17.6542 25.2518 17.3575 25.0495 17.1036C24.8346 16.825 24.5547 16.6031 24.2344 16.4573V8.07812C24.2333 7.03761 23.8641 6.03103 23.192 5.23666C22.52 4.44229 21.5885 3.91139 20.5625 3.73797V2.9375C20.5625 2.74273 20.4851 2.55594 20.3474 2.41822C20.2097 2.2805 20.0229 2.20313 19.8281 2.20312H18.3594C17.7751 2.20313 17.2147 2.43524 16.8015 2.84841C16.3884 3.26157 16.1563 3.82194 16.1563 4.40625C16.1563 4.99056 16.3884 5.55093 16.8015 5.96409C17.2147 6.37726 17.7751 6.60937 18.3594 6.60938H19.8281C20.0229 6.60938 20.2097 6.532 20.3474 6.39428C20.4851 6.25656 20.5625 6.06977 20.5625 5.875V5.24344C21.1915 5.40583 21.7489 5.77214 22.1475 6.28504C22.5462 6.79795 22.7635 7.42853 22.7656 8.07812V16.3252C22.3852 16.422 22.0376 16.6188 21.7587 16.8951C21.4798 17.1714 21.2798 17.5172 21.1794 17.8967C21.0308 18.4153 20.7812 18.8995 20.445 19.3214C20.3872 19.3986 20.3451 19.4864 20.3211 19.5798C20.2972 19.6732 20.2919 19.7704 20.3055 19.8659C20.3192 19.9614 20.3515 20.0532 20.4006 20.1362C20.4497 20.2192 20.5147 20.2917 20.5919 20.3495C20.669 20.4074 20.7568 20.4495 20.8503 20.4734C20.9437 20.4974 21.0409 20.5027 21.1364 20.489C21.2318 20.4754 21.3237 20.4431 21.4067 20.3939C21.4897 20.3448 21.5622 20.2798 21.62 20.2027C22.0607 19.6243 22.3849 18.9659 22.5747 18.2639C22.6177 18.1037 22.7138 17.9628 22.8471 17.8641C22.9805 17.7654 23.1433 17.7148 23.3091 17.7205C23.4243 17.7193 23.5382 17.7453 23.6416 17.7963C23.7449 17.8474 23.8348 17.922 23.9039 18.0142C23.9691 18.0913 24.015 18.1828 24.038 18.2811C24.061 18.3794 24.0603 18.4817 24.0361 18.5797C23.575 20.2612 22.5576 21.7367 21.15 22.7656C19.4548 24.0181 17.4477 24.7803 15.3485 24.9688C15.1667 24.987 14.9982 25.0724 14.876 25.2082C14.7538 25.344 14.6866 25.5204 14.6875 25.7031V30.1094C14.6862 30.2071 14.6653 30.3035 14.6262 30.393C14.5871 30.4826 14.5306 30.5634 14.4599 30.6308C14.3948 30.6994 14.3161 30.7538 14.2289 30.7905C14.1416 30.8272 14.0477 30.8453 13.9531 30.8438C13.7584 30.8438 13.5716 30.7664 13.4339 30.6287C13.2961 30.4909 13.2188 30.3041 13.2188 30.1094V25.7031C13.2199 25.5216 13.1537 25.3461 13.033 25.2104C12.9123 25.0748 12.7456 24.9887 12.5652 24.9688C8.27642 24.5061 4.78814 21.9578 3.89221 18.6238C3.8625 18.5148 3.85831 18.4005 3.87996 18.2897C3.90162 18.1789 3.94853 18.0746 4.01705 17.9848C4.08622 17.895 4.17525 17.8224 4.27718 17.7727C4.37911 17.723 4.49116 17.6976 4.60455 17.6984C4.75999 17.7011 4.91058 17.753 5.03463 17.8467C5.15868 17.9404 5.2498 18.0711 5.29486 18.2198C6.08799 21.3262 9.70111 23.5808 13.9531 23.5808C14.4782 23.5887 15.0032 23.5617 15.5247 23.5C15.6208 23.4874 15.7135 23.4558 15.7974 23.4072C15.8812 23.3585 15.9546 23.2938 16.0134 23.2166C16.0721 23.1395 16.1149 23.0515 16.1395 22.9577C16.164 22.8639 16.1697 22.7662 16.1563 22.6702C16.1446 22.5727 16.1134 22.4785 16.0647 22.3933C16.016 22.308 15.9507 22.2334 15.8726 22.1738C15.7946 22.1143 15.7054 22.071 15.6103 22.0465C15.5152 22.022 15.4162 22.0168 15.3191 22.0312C14.8663 22.0918 14.4099 22.1212 13.9531 22.1194C10.4502 22.1194 7.34377 20.2908 6.71955 17.86C6.619 17.4857 6.41922 17.1455 6.1413 16.8753C5.86339 16.6051 5.51766 16.4151 5.14064 16.3252V8.07812C5.14275 7.42853 5.36013 6.79795 5.75876 6.28504C6.15739 5.77214 6.71479 5.40583 7.34377 5.24344V5.875C7.34377 6.06977 7.42114 6.25656 7.55886 6.39428C7.69658 6.532 7.88337 6.60938 8.07814 6.60938H9.54689C10.1312 6.60938 10.6916 6.37726 11.1047 5.96409C11.5179 5.55093 11.75 4.99056 11.75 4.40625C11.75 3.82194 11.5179 3.26157 11.1047 2.84841C10.6916 2.43524 10.1312 2.20313 9.54689 2.20312H8.07814C7.88337 2.20313 7.69658 2.2805 7.55886 2.41822C7.42114 2.55594 7.34377 2.74273 7.34377 2.9375V3.73797C6.3178 3.91139 5.38631 4.44229 4.71425 5.23666C4.0422 6.03103 3.67295 7.03761 3.67189 8.07812V16.4573C3.20039 16.6751 2.82097 17.0524 2.60061 17.5227C2.38024 17.993 2.33311 18.526 2.46752 19.0277C3.48096 22.7656 7.16752 25.637 11.75 26.3714V30.1094C11.7498 30.5652 11.8909 31.0098 12.154 31.382C12.417 31.7543 12.789 32.0357 13.2188 32.1877C13.2996 35.6935 14.7698 39.0236 17.306 41.4455C19.8421 43.8673 23.2365 45.1825 26.7423 45.1016C30.2481 45.0208 33.5782 43.5506 36.0001 41.0145C38.4219 38.4783 39.7371 35.084 39.6563 31.5781V16.8392C41.0751 16.6605 42.38 15.9703 43.3264 14.8982C44.2728 13.8261 44.7956 12.4457 44.7969 11.0156ZM19.0938 5.14062H18.3594C18.1646 5.14062 17.9778 5.06325 17.8401 4.92553C17.7024 4.78781 17.625 4.60102 17.625 4.40625C17.625 4.21148 17.7024 4.02469 17.8401 3.88697C17.9778 3.74925 18.1646 3.67187 18.3594 3.67188H19.0938V5.14062ZM8.81252 3.67188H9.54689C9.74166 3.67188 9.92845 3.74925 10.0662 3.88697C10.2039 4.02469 10.2813 4.21148 10.2813 4.40625C10.2813 4.60102 10.2039 4.78781 10.0662 4.92553C9.92845 5.06325 9.74166 5.14062 9.54689 5.14062H8.81252V3.67188ZM38.9219 12.4844C38.6314 12.4844 38.3474 12.3982 38.1059 12.2368C37.8644 12.0755 37.6761 11.8461 37.5649 11.5777C37.4538 11.3093 37.4247 11.014 37.4814 10.7291C37.538 10.4442 37.6779 10.1825 37.8833 9.97706C38.0887 9.77165 38.3504 9.63177 38.6354 9.5751C38.9203 9.51842 39.2156 9.54751 39.484 9.65868C39.7523 9.76984 39.9817 9.9581 40.1431 10.1996C40.3045 10.4412 40.3906 10.7251 40.3906 11.0156C40.3906 11.4052 40.2359 11.7787 39.9605 12.0542C39.685 12.3296 39.3114 12.4844 38.9219 12.4844ZM39.6563 15.3558V13.9531C39.6604 13.9214 39.6604 13.8893 39.6563 13.8577C40.3518 13.6838 40.9597 13.2616 41.3655 12.6706C41.7713 12.0796 41.947 11.3605 41.8594 10.649C41.7718 9.93742 41.4271 9.28246 40.89 8.80749C40.353 8.33252 39.6608 8.07034 38.9439 8.07034C38.227 8.07034 37.5348 8.33252 36.9978 8.80749C36.4608 9.28246 36.116 9.93742 36.0284 10.649C35.9408 11.3605 36.1165 12.0796 36.5223 12.6706C36.9281 13.2616 37.5361 13.6838 38.2316 13.8577C38.2124 13.8872 38.1975 13.9194 38.1875 13.9531V15.3558C37.0981 15.1716 36.1177 14.585 35.4405 13.7121C34.7633 12.8391 34.4387 11.7436 34.5311 10.6427C34.6235 9.54173 35.1261 8.51566 35.9393 7.76781C36.7526 7.01996 37.8171 6.60491 38.9219 6.60491C40.0267 6.60491 41.0912 7.01996 41.9045 7.76781C42.7177 8.51566 43.2203 9.54173 43.3127 10.6427C43.4051 11.7436 43.0805 12.8391 42.4033 13.7121C41.7261 14.585 40.7456 15.1716 39.6563 15.3558Z" fill="#FFC75B"/>
<path d="M18.1391 22.7657C18.2321 22.7659 18.3243 22.7484 18.4108 22.7143C18.6854 22.6011 18.9527 22.4711 19.2113 22.325C19.2984 22.2771 19.3749 22.212 19.4361 22.1337C19.4973 22.0553 19.542 21.9653 19.5674 21.8692C19.5928 21.7731 19.5984 21.6728 19.5839 21.5744C19.5694 21.476 19.5351 21.3816 19.483 21.2969C19.4344 21.2134 19.3698 21.1402 19.2929 21.0817C19.216 21.0232 19.1283 20.9804 19.0348 20.9559C18.9414 20.9313 18.844 20.9254 18.7482 20.9386C18.6525 20.9518 18.5603 20.9837 18.4769 21.0325C18.2813 21.1453 18.0775 21.2435 17.8674 21.3263C17.6882 21.374 17.5336 21.4877 17.4348 21.6446C17.3359 21.8015 17.3001 21.99 17.3345 22.1722C17.3689 22.3544 17.471 22.5169 17.6202 22.627C17.7695 22.7371 17.9548 22.7866 18.1391 22.7657Z" fill="#FFC75B"/>
</svg>
