<svg width="47" height="47" viewBox="0 0 47 47" fill="none" xmlns="http://www.w3.org/2000/svg">
<path d="M37.9425 4.7738L43.24 13.0391C44.9992 15.7785 44.2002 19.4311 41.454 21.1835C38.7079 22.9359 35.062 22.1437 33.3096 19.3975L28.012 11.1322C26.2596 8.3928 27.0586 4.74694 29.798 2.9878C31.1677 2.11494 32.7657 1.87994 34.2429 2.20223C35.7133 2.5178 37.0629 3.4108 37.9425 4.7738Z" fill="#5B52C5"/>
<path d="M37.9425 6.78808L43.24 15.0534C44.9992 17.7928 44.2002 21.4454 41.454 23.1978C38.7079 24.9502 35.062 24.1579 33.3096 21.4118L28.012 13.1465C26.2596 10.4071 27.0586 6.76122 29.798 5.00208C31.1677 4.12922 32.7657 3.89422 34.2429 4.21651C35.7133 4.53208 37.0629 5.42508 37.9425 6.78808Z" fill="#8F90FB"/>
<path d="M30.3621 16.8192L33.3096 21.4185C35.0688 24.158 38.7146 24.957 41.4541 23.2045C44.1935 21.4521 44.9925 17.7995 43.2401 15.0601L40.2925 10.4608L30.3621 16.8192Z" fill="#FBE063"/>
<path d="M20.8277 25.9775C24.6434 25.9775 27.7367 22.8843 27.7367 19.0685C27.7367 15.2528 24.6434 12.1595 20.8277 12.1595C17.012 12.1595 13.9187 15.2528 13.9187 19.0685C13.9187 22.8843 17.012 25.9775 20.8277 25.9775Z" fill="#EFEFED"/>
<path d="M26.6826 22.7413C26.132 23.6276 25.3868 24.3662 24.5072 24.9167L14.9729 15.3959C15.5235 14.5096 16.2755 13.771 17.1483 13.2205L26.6826 22.7413Z" fill="#E2E2E0"/>
<path d="M10.8838 27.4547V40.0238C10.8838 40.8363 10.2258 41.501 9.40666 41.501H4.27023C3.45109 41.501 2.79309 40.8363 2.79309 40.0238V27.4547C2.79309 26.6355 3.45109 25.9775 4.27023 25.9775H9.40666C10.2258 25.9775 10.8838 26.6355 10.8838 27.4547Z" fill="#495E66"/>
<path d="M45.0931 32.0607C45.0931 32.8328 44.6768 33.5445 43.9986 33.9272C43.9986 33.9272 29.9859 43.8778 24.3594 44.1934C20.7135 44.4015 10.8905 38.4929 10.8905 38.4929V27.9649C10.8905 27.9649 14.0462 27.8777 17.7592 27.9649C20.4449 28.0254 23.3522 29.3884 25.5814 31.4027H30.5902C31.7249 31.4027 32.6582 32.2554 32.7656 33.3632C32.7724 33.3699 32.7656 33.3699 32.7656 33.3699C32.7724 33.4371 32.7791 33.5109 32.7791 33.5848C32.7791 34.0145 32.6515 34.4174 32.4366 34.7531C32.4366 34.7598 32.4366 34.7665 32.4299 34.7665L42.0179 30.1337C43.4414 29.4488 45.0931 30.4828 45.0931 32.0607Z" fill="#FFC6CD"/>
<path d="M32.7656 33.37C32.7723 33.4371 32.779 33.511 32.779 33.5849C32.779 34.0146 32.6515 34.4174 32.4366 34.7531C32.4299 34.7666 32.4232 34.7666 32.4098 34.7666C32.0203 35.0217 31.5638 35.1627 31.0669 35.1627H21.3983C21.2103 35.1627 21.0626 35.015 21.0626 34.827C21.0626 34.639 21.2103 34.4913 21.3983 34.4913H31.0669C31.7182 34.4913 32.2889 34.1556 32.6246 33.6453V33.6386C32.6783 33.5513 32.7253 33.464 32.7656 33.37Z" fill="#FFAECD"/>
<path d="M8.11079 39.5001C8.75973 39.5001 9.28579 38.9741 9.28579 38.3251C9.28579 37.6762 8.75973 37.1501 8.11079 37.1501C7.46186 37.1501 6.93579 37.6762 6.93579 38.3251C6.93579 38.9741 7.46186 39.5001 8.11079 39.5001Z" fill="white"/>
</svg>
